<svg xmlns="http://www.w3.org/2000/svg"  viewBox="0 0 512 512" width="100px" height="100px"><path fill="#EF4823" d="M324.1 436.8c-1-3.7-2.1-8.2-6-9.8-3.5-1.5-7.6-1.6-11.3-1.9-10.7-1-20.9-2.7-29.8-9-10.1-7.1-18.1-17.5-31.8-16.3-12.7 1-24.4 7.1-36.1 11.7 1.8 23.6-1.9 66.1 30.3 67.1 9.6.3 19.1-1.4 28.6-2.9 9.5-1.5 18.6-2.3 28.2-1.6 9.2.6 24 2.1 26.9-9.3C325.2 456.2 326.4 445.4 324.1 436.8zM162.6 436.8c-1-3.7-2.1-8.2-6-9.8-3.5-1.5-7.6-1.6-11.3-1.9-10.4-1-20.4-2.6-29.2-8.5-.9.6-1.9 1.2-3 1.6-5.6 2.1-9-4.9-6.1-8.6-6.8-5.5-13.6-10.6-23.4-9.8-12.7 1-24.4 7.1-36.1 11.7 1.8 23.6-1.9 66.1 30.3 67.1 9.6.3 19.1-1.4 28.6-2.9 9.5-1.5 18.6-2.3 28.2-1.6 9.2.6 24 2 26.9-9.4C163.7 456.2 164.9 445.4 162.6 436.8z"/><path fill="#BCBCBC" d="M356.4,185.6c-0.6-9.5-2.3-18.8-4.1-28.2c-3.1-16.8-3.8-37.9-24.3-41.7c-11.3-2.1-22.6-0.1-33.9-0.7c-9.4-0.5-22.1-2.7-27-11.9c-4-7.6-0.7-16.7-4-24.6c-2.4-5.8-7.7-9.3-13.5-11.4c-16.1-5.7-35.1-3.6-51.6-2.1c-15.3,1.4-31,4.2-46.4,3.5c-4.5,9.6,0.5,21.9,1,31.9c0.8,14.9,2.3,29.8,4.1,44.6c0.9,7.4,1.8,14.8,3.1,22.2c1,5.7,1.9,11.8,5,16.8c4.6,7.5,12,11.3,20.5,12.9c10.3,2,21,2.5,31.4,2.7c15,0.3,29.8,2,44.7,3.1c14.9,1.1,29.8,0.9,44.8,1.9c14.9,1,29.7,2.2,44.6,1c0.5,0,0.9,0,1.3,0C357.8,203.1,356.7,190.8,356.4,185.6z"/><path fill="#EF4823" d="M477.7,428.7c-1-3.7-2.1-8.2-6-9.8c-3.5-1.5-7.6-1.6-11.3-1.9c-10.7-1-20.9-2.7-29.8-9c-8.3-5.8-15.2-13.8-24.9-15.9c-2.2,2.9-6.8,3.2-8.9-0.2c-11.9,1.5-22.9,7.2-34.1,11.4c1.8,23.6-1.9,66.1,30.3,67.1c9.6,0.3,19.1-1.4,28.6-2.9c9.5-1.5,18.6-2.3,28.2-1.6c9.2,0.6,24,2.1,26.9-9.3C478.8,448.1,480,437.3,477.7,428.7z"/><path fill="#010101" d="M483.3,414.5c-5.5-7.4-15-7.7-23.4-8.5c-5.6-0.6-11.5-1.2-16.8-3.3c-4.6-1.8-8.4-4.9-12.1-8c-5-4.1-9.7-8.3-15.7-11c-2.8-1.2-5.7-2-8.6-2.4v-0.6c0-3.5-2.6-5-5.3-4.9c-13.5-28.7-33.2-54.1-47.9-82.2c-7.2-13.8-12.8-28.1-18.3-42.7c-4.3-11.5-8.7-24-15.9-34.2c4.6,0.3,9.3,0.6,13.9,0.7c6.1,0.2,12.1,0,18.2-0.5c0.3,0,0.6-0.1,0.8-0.1c0.8,0.1,1.7,0.1,2.6-0.2c16.8-4.9,12.9-31,11.1-43.8c-1.1-7.5-2.8-15-3.8-22.5c-1.3-9.3-3-18.8-7.3-27.3c-9-17.8-29-19.6-46.9-18.9c-5.9,0.2-11.8,0.6-17.6,0c-4.3-0.4-10.6-1.9-13.4-5.4c-1.8-2.3-1.1-6.5-1.1-9.2c0-4.8-0.7-9.7-2.4-14.2c-7.9-21.2-36-22.4-54.8-22.1c-12.4,0.2-24.7,1.6-37,2.9c-9.6,1-20.4,2.6-29.5,2c-2.1-0.1-3.8,0.8-4.9,2.1c-1.9-0.1-3.9,0.7-5.1,2.9c-5.6,10.3-2.7,22.8-1.2,33.8c2,14.5,2.4,29.3,4,43.8c1.5,14.1,2.4,29.6,7.2,43.1c3.3,9.3,10.1,16.6,19,20.8c6.4,3,13.5,4.3,20.5,5c-10.1,12.6-12.8,31.1-17,46c-3.4,12.1-9.1,23.5-13.9,35.1c-5.6,13.5-11.3,27.1-16.9,40.6c-5.9,14.2-10.4,29.1-16.2,43.4c-3.1,7.7-6.4,15.3-10.2,22.7c-0.9,1.6-1.8,3.2-2.7,4.7c-4.5-3.8-9-7.5-14.4-10c-5.9-2.7-12.6-3.2-19-2.7c-13.8,1.1-26.6,8.1-39.4,12.9c-1.4,0.5-2.4,1.4-2.9,2.5c-1.7,0.9-3,2.6-2.7,5.1c2.4,23.3-1.1,52.1,16.6,70.6c13.4,14,36.5,9.5,53.3,6.8c9.4-1.5,18.3-2.5,27.8-1.9c11.4,0.8,23.9,1.1,32.9-7.2c7.1-6.6,7.4-19.5,7.6-28.5c0.2-8.9-0.7-19.1-6.2-26.5c-5.5-7.4-15-7.7-23.4-8.5c-5.6-0.6-11.5-1.2-16.8-3.3c-1.6-0.7-3.2-1.5-4.6-2.4c0.4-0.6,0.7-1.1,1.1-1.7c4.1-6.5,7.3-13.8,10.3-20.9c6.2-14.6,11.3-29.7,16.7-44.6c9.3-25.7,22.4-50,31.4-75.8c3.2-9,5.2-18.4,7.9-27.6c2.3-7.9,5-18.5,11.5-24.2c1.1-1,1.7-2.2,1.9-3.5c12.1,0.7,24.1,1,36.2,2c2.5,0.2,4.9,0.4,7.4,0.6c0,0.2,0,0.5,0,0.8c0.1,58.9,7.4,117.4,7.9,176.3c-4.2-0.9-8.6-1.1-12.9-0.8c-13.8,1.1-26.6,8.1-39.4,12.9c-1.4,0.5-2.4,1.4-2.9,2.5c-1.7,0.8-3,2.6-2.7,5.1c2.4,23.3-1.1,52.1,16.6,70.6c13.4,14,36.5,9.5,53.3,6.8c9.4-1.5,18.3-2.5,27.8-1.9c11.4,0.8,23.9,1.1,32.9-7.2c7.1-6.6,7.4-19.5,7.6-28.5c0.2-8.9-0.7-19.1-6.2-26.5c-5.5-7.4-15-7.7-23.4-8.5c-5.6-0.6-11.5-1.2-16.8-3.3c-4.6-1.8-8.4-4.9-12.1-8c-3.5-2.9-6.9-5.9-10.7-8.3c-0.1-60.4-7.8-120.5-8-180.9c9.4,0.7,18.8,1.1,28.3,1.3c6.2,0.1,12.3,0.4,18.4,0.8c0.1,0.8,0.5,1.7,1.2,2.5c9.1,10.7,13.8,24.8,18.7,37.8c5.4,14.5,11.3,28.5,18.2,42.3c14.5,28.7,34.9,54.1,48.4,83.3c-12.1,2-23.6,8.1-35,12.3c-1.4,0.5-2.4,1.4-2.9,2.5c-1.7,0.8-3,2.6-2.7,5.1c2.4,23.3-1.1,52.1,16.6,70.6c13.4,14,36.5,9.5,53.3,6.8c9.4-1.5,18.3-2.5,27.8-1.9c11.4,0.8,23.9,1.1,32.9-7.2c7.1-6.6,7.4-19.5,7.6-28.5C489.8,432.1,488.9,421.9,483.3,414.5z M145.3,425.1c3.7,0.4,7.8,0.4,11.3,1.9c3.9,1.6,5,6.1,6,9.8c2.3,8.5,1.1,19.4-1,27.8c-2.9,11.4-17.7,10-26.9,9.4c-9.7-0.6-18.7,0.1-28.2,1.6c-9.5,1.5-19,3.2-28.6,2.9c-32.2-1-28.6-43.4-30.3-67.1c11.8-4.5,23.5-10.6,36.1-11.7c9.7-0.8,16.6,4.2,23.4,9.8c-2.9,3.8,0.5,10.8,6.1,8.6c1.1-0.4,2.1-1,3-1.6C124.9,422.5,134.9,424.1,145.3,425.1z M277,416.1c9,6.3,19.2,7.9,29.8,9c3.7,0.4,7.8,0.4,11.3,1.9c3.9,1.6,5,6.1,6,9.8c2.3,8.5,1.1,19.4-1,27.8c-2.9,11.4-17.7,10-26.9,9.3c-9.7-0.6-18.7,0.1-28.2,1.6c-9.5,1.5-19,3.2-28.6,2.9c-32.2-1-28.6-43.4-30.3-67.1c11.8-4.5,23.5-10.6,36.1-11.7C258.8,398.7,266.8,409,277,416.1z M306,204.7c-14.9-1-29.9-0.8-44.8-1.9c-14.9-1.1-29.8-2.7-44.7-3.1c-10.4-0.2-21.2-0.7-31.4-2.7c-8.5-1.6-15.8-5.4-20.5-12.9c-3.1-5-4-11.1-5-16.8c-1.2-7.4-2.2-14.8-3.1-22.2c-1.7-14.8-3.3-29.7-4.1-44.6c-0.5-10-5.4-22.3-1-31.9c15.5,0.8,31.1-2.1,46.4-3.5c16.6-1.5,35.6-3.6,51.6,2.1c5.8,2.1,11.1,5.5,13.5,11.4c3.3,7.9-0.1,17,4,24.6c4.9,9.2,17.6,11.4,27,11.9c11.4,0.6,22.6-1.4,33.9,0.7c20.5,3.8,21.2,24.9,24.3,41.7c1.7,9.3,3.4,18.7,4.1,28.2c0.3,5.2,1.5,17.5-4.4,20.1c-0.4-0.1-0.8-0.1-1.3,0C335.8,207,320.9,205.8,306,204.7z M476.7,456.5c-2.9,11.4-17.7,10-26.9,9.3c-9.7-0.6-18.7,0.1-28.2,1.6c-9.5,1.5-19,3.2-28.6,2.9c-32.2-1-28.6-43.4-30.3-67.1c11.1-4.3,22.2-10,34.1-11.4c2.2,3.4,6.8,3.1,8.9,0.2c9.7,2.1,16.6,10.1,24.9,15.9c9,6.3,19.2,7.9,29.8,9c3.7,0.4,7.8,0.4,11.3,1.9c3.9,1.6,5,6.1,6,9.8C480,437.3,478.8,448.1,476.7,456.5z"/></svg>