<svg xmlns="http://www.w3.org/2000/svg"  viewBox="0 0 48 48" width="50px" height="50px"><path fill="#fcbf95" d="M33.085,42.618c2.702,0.043,5.406-0.04,8.1-0.249c0.679-0.053,1.404-0.132,1.928-0.568 c0.729-0.607,0.816-1.675,0.848-2.622c0.18-5.392,0.511-10.799,0.345-16.191c-0.107-3.461-0.766-6.641-1.094-10.088 c-0.082-0.864-0.267-1.88-1.055-2.244c-0.397-0.183-0.856-0.146-1.292-0.105c-3.451,0.326-6.989,0.384-10.44,0.71 c-1.238,0.117-2.477,0.234-3.719,0.267c-1.179,0.032-2.361-0.011-3.535-0.129c-1.291-0.129-2.699-0.421-3.493-1.447 c-0.706-0.911-0.85-2.311-1.876-2.836c-0.425-0.217-0.922-0.23-1.4-0.238c-2.492-0.043-5.524-0.23-7.693-0.175 C7.107,6.745,5.088,7.382,4.453,8.852C4.238,9.35,4.196,9.904,4.169,10.447c-0.345,6.764,1.088,14.1,0.444,20.842 c-0.042,1.76,0.004,4.065-0.037,5.825c-0.026,1.082-0.034,2.231,0.531,3.154c0.533,0.871,1.508,1.395,2.506,1.613 s2.031,0.17,3.051,0.131c7.424-0.281,14.86,0.049,22.266,0.64"/><path fill="#4b7bb2" d="M31.542,33.958c0.125-2.978,0.833-9.418,0.958-12.396c-1.363,0.293-3.693,0.584-5.086,0.642 c-0.965,0.04-1.933,0.022-2.897,0.091c-1.755,0.125-3.475,0.533-5.187,0.94c-0.152,0.036-0.31,0.076-0.425,0.181 c-0.162,0.149-0.195,0.388-0.218,0.606c-0.332,3.155-0.631,6.314-0.896,9.475c0,0,0.112,2.47,1.77,2.142 c0.412-2.801,0.9-6.313,1.043-9.14c3.9-0.619,5.73-0.59,9.664-0.936c0.06,1.921-0.397,4.144-0.657,6.048 C29.611,31.612,30.083,34.792,31.542,33.958z"/><path fill="#010101" d="M44.806,22.972c-0.067-2.159-0.351-4.244-0.625-6.261c-0.17-1.252-0.347-2.547-0.472-3.857 c-0.06-0.636-0.202-2.125-1.343-2.651c-0.529-0.244-1.094-0.192-1.548-0.148c-1.716,0.162-3.487,0.259-5.201,0.354 c-1.723,0.095-3.504,0.192-5.24,0.355c-1.208,0.114-2.458,0.233-3.686,0.266c-1.154,0.031-2.323-0.011-3.471-0.126 c-1.098-0.11-2.448-0.352-3.148-1.256c-0.231-0.299-0.4-0.675-0.58-1.073c-0.314-0.701-0.671-1.496-1.464-1.901 c-0.538-0.275-1.138-0.285-1.62-0.293c-0.922-0.016-1.917-0.052-2.916-0.087c-1.68-0.062-3.418-0.119-4.799-0.088 c-1.699,0.044-3.949,0.712-4.7,2.45C3.749,9.222,3.7,9.813,3.669,10.421c-0.16,3.145,0.063,6.454,0.279,9.654 c0.251,3.722,0.511,7.569,0.165,11.202c-0.021,0.881-0.02,1.898-0.019,2.916c0.001,1.015,0.002,2.03-0.019,2.909 C4.05,38.149,4.02,39.452,4.68,40.53c0.557,0.909,1.561,1.563,2.825,1.84c1.019,0.223,2.054,0.186,3.054,0.146l0.124-0.004 c6.571-0.251,13.627-0.047,22.208,0.638c0.013,0.001,0.027,0.002,0.04,0.002c0.064,0,0.126-0.013,0.183-0.034 c2.702,0.04,5.432-0.043,8.111-0.251c0.776-0.06,1.585-0.162,2.209-0.682c0.88-0.733,0.992-1.928,1.027-2.99 c0.042-1.246,0.092-2.493,0.142-3.74C44.765,31.364,44.934,27.135,44.806,22.972z M4.668,10.472 C4.694,9.96,4.732,9.466,4.912,9.051C5.44,7.829,7.205,7.243,8.72,7.204c1.351-0.035,3.072,0.026,4.738,0.087 c1.005,0.036,2.007,0.072,2.935,0.088c0.398,0.007,0.85,0.014,1.181,0.184c0.48,0.245,0.724,0.789,1.007,1.42 c0.195,0.435,0.396,0.884,0.702,1.277c0.933,1.204,2.542,1.508,3.838,1.637c1.19,0.12,2.403,0.162,3.598,0.132 c1.261-0.034,2.528-0.154,3.753-0.27c1.716-0.162,3.487-0.259,5.201-0.354c1.723-0.095,3.504-0.192,5.239-0.355 c0.353-0.033,0.751-0.069,1.036,0.061c0.549,0.253,0.698,1.115,0.767,1.838c0.126,1.331,0.304,2.636,0.476,3.897 c0.024,0.174,0.046,0.344,0.069,0.517c-0.183-0.176-0.383-0.34-0.627-0.47c-0.836-0.445-1.782-0.45-2.615-0.443 c-2.633-0.034-5.315-0.165-7.922-0.328c-3.035-0.19-6.174-0.388-9.167-0.306l-0.995,0.03c-1.341,0.043-3.18,0.101-4.21,0.07 c-1.13-0.031-1.927,0.029-2.697,0.091c-0.778,0.061-1.513,0.118-2.589,0.087c-1.747-0.051-3.729-0.107-5.49,0.704 c-0.878,0.406-1.589,1.044-2.091,1.814C4.677,15.882,4.534,13.108,4.668,10.472z M43.602,35.415c-0.05,1.249-0.1,2.499-0.141,3.747 c-0.03,0.884-0.106,1.786-0.668,2.255c-0.398,0.332-1.006,0.404-1.646,0.454c-2.66,0.206-5.369,0.284-8.054,0.246 c-0.064-0.008-0.127,0.01-0.184,0.032c-6.239-0.497-11.678-0.739-16.714-0.739c-1.9,0-3.744,0.034-5.55,0.103l-0.124,0.005 c-0.939,0.033-1.908,0.072-2.802-0.124c-0.981-0.216-1.779-0.721-2.187-1.386c-0.506-0.827-0.479-1.967-0.458-2.882 c0.021-0.886,0.02-1.91,0.019-2.934c-0.001-1.009-0.002-2.018,0.016-2.855c0.305-3.193,0.148-6.545-0.065-9.835c0,0,0,0,0,0 c-0.07-1.622,0.841-3.111,2.321-3.795c1.546-0.714,3.403-0.661,5.042-0.612c1.132,0.032,1.927-0.029,2.697-0.091 c0.778-0.061,1.514-0.116,2.589-0.087c1.062,0.032,2.917-0.027,4.271-0.07l0.991-0.03c2.949-0.079,6.064,0.114,9.077,0.304 c2.623,0.164,5.328,0.331,7.986,0.33c0.744-0.005,1.528-0.002,2.143,0.326c0.965,0.515,1.22,1.784,1.467,3.012l0.059,0.291 c0.053,0.634,0.098,1.271,0.118,1.924C43.933,27.13,43.765,31.342,43.602,35.415z"/><path fill="#4b7bb2" d="M18.749,34.18c-0.813-0.346-1.661-0.698-2.532-0.624c-0.447,0.038-0.88,0.188-1.296,0.367 c-0.343,0.148-0.683,0.321-0.959,0.585c-0.276,0.265-0.483,0.634-0.494,1.032c-0.008,0.276,0.078,0.547,0.2,0.79 c0.531,1.052,1.703,1.559,2.813,1.625c0.671,0.04,1.366-0.057,1.954-0.408c0.588-0.351,1.054-0.984,1.122-1.704 s-0.33-1.496-0.971-1.713"/><path fill="#4b7bb2" d="M30.286,31.886c-1.113-0.632-2.866-0.518-3.867,0.271c-0.568,0.448-1.03,1.104-0.995,1.815 c0.045,0.912,0.895,1.616,1.787,1.895c0.917,0.287,1.94,0.243,2.828-0.122c0.722-0.297,1.399-0.887,1.458-1.649 c0.047-0.618-0.316-1.186-0.664-1.704C30.749,32.269,30.56,32.024,30.286,31.886z"/><path fill="#010101" d="M32.822,21.181c-0.119-0.101-0.278-0.139-0.427-0.107c-1.33,0.286-3.621,0.575-5.002,0.631 c-0.384,0.017-0.768,0.023-1.151,0.029c-0.587,0.011-1.175,0.021-1.761,0.063c-1.803,0.129-3.564,0.548-5.267,0.953 c-0.174,0.041-0.437,0.104-0.648,0.3c-0.309,0.284-0.351,0.683-0.376,0.921c-0.321,3.051-0.613,6.14-0.871,9.19 c-0.369-0.082-0.748-0.135-1.145-0.103c-0.44,0.037-0.888,0.163-1.452,0.406c-0.356,0.154-0.766,0.356-1.107,0.684 c-0.397,0.381-0.634,0.883-0.648,1.378c-0.009,0.33,0.076,0.676,0.254,1.03c0.556,1.101,1.763,1.811,3.229,1.898 c0.106,0.007,0.21,0.01,0.312,0.01c0.737,0,1.384-0.164,1.927-0.487c0.764-0.455,1.286-1.255,1.364-2.087 c0.005-0.051-0.008-0.1-0.006-0.15c0.002-0.009,0.007-0.016,0.009-0.026c0.418-2.844,0.863-6.086,1.025-8.782 c2.44-0.373,4.043-0.485,6.044-0.625c0.8-0.056,1.657-0.115,2.647-0.198c-0.02,1.278-0.236,2.669-0.445,4.02 c-0.048,0.308-0.09,0.603-0.134,0.901c-1.091-0.144-2.287,0.107-3.083,0.735c-0.793,0.624-1.225,1.438-1.186,2.232 c0.059,1.178,1.115,2.027,2.136,2.347c0.446,0.141,0.917,0.21,1.388,0.21c0.61,0,1.221-0.116,1.779-0.346 c0.79-0.325,1.656-1.027,1.758-2.027c0.031-0.061,0.052-0.129,0.055-0.202c0.062-1.477,0.273-3.862,0.478-6.169 c0.206-2.323,0.418-4.726,0.481-6.228C33.006,21.429,32.94,21.28,32.822,21.181z M18.177,37.117 c-0.444,0.265-1.002,0.377-1.668,0.339c-1.106-0.066-2.002-0.571-2.396-1.351c-0.102-0.203-0.152-0.389-0.147-0.551 c0.007-0.234,0.131-0.484,0.341-0.687c0.226-0.216,0.524-0.361,0.812-0.486c0.46-0.199,0.812-0.3,1.14-0.328 c0.063-0.005,0.127-0.008,0.191-0.008c0.608,0,1.238,0.232,1.821,0.475c0.044,0.035,0.095,0.063,0.152,0.083 c0.392,0.133,0.682,0.679,0.634,1.192C19.009,36.316,18.671,36.823,18.177,37.117z M30.601,25.19 c-0.103-0.091-0.243-0.131-0.375-0.124c-1.217,0.106-2.232,0.178-3.169,0.243c-2.133,0.148-3.817,0.266-6.53,0.696 c-0.233,0.037-0.409,0.232-0.421,0.469c-0.114,2.258-0.452,4.971-0.812,7.52c-0.063-0.053-0.116-0.118-0.184-0.162 c-0.045-0.047-0.1-0.085-0.164-0.112c-0.209-0.089-0.425-0.181-0.648-0.267c0.262-3.11,0.56-6.265,0.887-9.378 c0.007-0.062,0.026-0.248,0.059-0.29c0.029-0.022,0.142-0.049,0.203-0.063c1.664-0.396,3.385-0.806,5.106-0.928 c0.568-0.041,1.138-0.051,1.708-0.061c0.392-0.007,0.784-0.014,1.175-0.029c1.226-0.05,3.146-0.277,4.534-0.528 c-0.086,1.478-0.269,3.542-0.446,5.547c-0.131,1.483-0.265,2.995-0.361,4.287c-0.13-0.175-0.331-0.407-0.638-0.565 c-0.112-0.063-0.235-0.111-0.357-0.162c0.048-0.33,0.096-0.659,0.149-1.003c0.246-1.585,0.5-3.223,0.453-4.732 C30.764,25.411,30.704,25.282,30.601,25.19z M29.848,35.283c-0.778,0.318-1.684,0.36-2.488,0.106 c-0.668-0.209-1.402-0.749-1.437-1.442c-0.023-0.46,0.278-0.982,0.805-1.397c0.473-0.373,1.179-0.567,1.873-0.567 c0.522,0,1.037,0.11,1.438,0.338c0.007,0.005,0.015,0.009,0.022,0.012c0.174,0.088,0.306,0.267,0.355,0.34 c0.337,0.501,0.613,0.95,0.58,1.387C30.953,34.632,30.351,35.076,29.848,35.283z"/></svg>