<svg xmlns="http://www.w3.org/2000/svg"  viewBox="0 0 48 48" width="500px" height="500px"><path fill="#fcbf95" d="M4.896,34.813c0.057,0.978,0.028,2.959,0.39,4.158c0.362,1.198,1.479,2.013,2.625,2.518 c3.901,1.721,8.382,0.791,12.637,0.517c5.974-0.384,11.973,0.601,17.948,0.222c1.614-0.103,3.387-0.39,4.418-1.635 c1.182-1.427,0.929-3.501,0.867-5.353c-0.133-3.963,0.652-7.752,0.39-11.708c-0.203-3.056-0.465-5.581-0.498-8.643 c-0.016-1.47-0.17-3.198-1.424-3.966c-0.837-0.513-1.897-0.408-2.871-0.285c-5.338,0.677-10.742,0.912-16.081,0.236 c-1.049-0.133-2.187-0.373-2.85-1.197c-0.608-0.756-0.709-1.89-1.485-2.474c-0.473-0.355-1.096-0.422-1.685-0.467 c-3.2-0.241-6.144-0.102-9.335,0.243C6.952,7.054,5.865,7.263,5.19,7.991c-0.696,0.752-0.711,1.891-0.676,2.915 c0.106,3.057,0.024,6.11,0.306,9.156c0.088,0.952,0.185,1.904,0.196,2.86c0.025,2.256-0.432,4.491-0.502,6.746 C4.46,31.418,4.816,33.461,4.896,34.813z"/><path fill="#4b7bb2" d="M25.941,35.56c-3.421,0.085-6.955-0.185-10.394-0.028c-0.214,0.01-0.436,0.019-0.637-0.055 c-0.21-0.078-0.377-0.24-0.522-0.41c-0.652-0.761-0.995-1.804-0.827-2.792s0.88-1.888,1.834-2.194s2.107,0.052,2.651,0.894 c-0.653-1.306-0.768-2.872-0.312-4.259c0.456-1.387,1.477-2.58,2.777-3.244c0.391-0.2,0.809-0.354,1.245-0.405 c0.561-0.066,1.131,0.043,1.665,0.23c2.112,0.74,3.716,2.867,3.654,5.104c0.271-0.929,0.767-1.791,1.435-2.491 c0.736-0.773,1.94-1.354,2.845-0.788c0.481,0.301,0.743,0.855,0.903,1.4c0.383,1.304,0.32,2.736-0.177,4.001 c0.494-0.507,1.239-0.755,1.938-0.644s1.332,0.577,1.645,1.211c0.292,0.592,0.306,1.279,0.282,1.938 c-0.017,0.483-0.055,0.976-0.244,1.42c-0.19,0.444-0.559,0.838-1.031,0.939c-0.333,0.071-1.267,0.072-1.607,0.1 C30.426,35.704,28.51,35.497,25.941,35.56z"/><path fill="#010101" d="M30.399,36.089c-0.558,0-1.105-0.01-1.664-0.021c-0.883-0.015-1.784-0.031-2.782-0.008l0,0 c-1.564,0.038-3.17,0.004-4.727-0.03c-1.866-0.042-3.796-0.085-5.657,0.001c-0.221,0.012-0.528,0.027-0.832-0.085 c-0.334-0.124-0.565-0.361-0.73-0.555c-0.774-0.903-1.126-2.1-0.939-3.199c0.203-1.195,1.077-2.235,2.175-2.587 c0.599-0.19,1.248-0.166,1.828,0.035c-0.198-1.02-0.139-2.087,0.188-3.08c0.499-1.519,1.602-2.807,3.024-3.533 c0.497-0.253,0.959-0.402,1.414-0.456c0.579-0.072,1.212,0.019,1.888,0.255c1.784,0.625,3.174,2.104,3.729,3.82 c0.239-0.387,0.519-0.75,0.833-1.08c0.874-0.917,2.335-1.58,3.472-0.868c0.515,0.322,0.881,0.872,1.118,1.683 c0.295,1.002,0.347,2.065,0.161,3.089c0.387-0.116,0.801-0.146,1.198-0.085c0.859,0.136,1.631,0.704,2.015,1.484 c0.338,0.684,0.36,1.45,0.335,2.177c-0.019,0.494-0.057,1.065-0.285,1.6c-0.274,0.644-0.793,1.104-1.386,1.23 c-0.245,0.052-0.648,0.069-1.19,0.088c-0.196,0.006-0.371,0.012-0.481,0.021C32.121,36.065,31.248,36.089,30.399,36.089z M27.013,35.048c0.602,0,1.175,0.011,1.74,0.021c1.383,0.026,2.69,0.051,4.269-0.08c0.121-0.01,0.313-0.017,0.528-0.024 c0.334-0.011,0.838-0.028,1.016-0.066c0.271-0.058,0.529-0.305,0.675-0.646c0.161-0.377,0.19-0.82,0.205-1.242 c0.024-0.688-0.005-1.24-0.231-1.698c-0.239-0.486-0.739-0.854-1.274-0.938c-0.53-0.087-1.123,0.111-1.501,0.499 c-0.166,0.172-0.429,0.2-0.63,0.071c-0.199-0.129-0.281-0.381-0.194-0.603c0.459-1.168,0.517-2.475,0.163-3.679 c-0.166-0.564-0.392-0.93-0.689-1.116c-0.632-0.396-1.595,0.055-2.217,0.71c-0.613,0.644-1.068,1.435-1.316,2.286 c-0.07,0.24-0.313,0.39-0.558,0.354c-0.249-0.039-0.43-0.257-0.423-0.508c0.054-1.951-1.373-3.937-3.319-4.619 c-0.532-0.186-1.017-0.257-1.441-0.205c-0.334,0.039-0.687,0.155-1.075,0.354c-1.19,0.607-2.112,1.685-2.53,2.955 c-0.417,1.27-0.313,2.684,0.285,3.88c0.119,0.237,0.031,0.526-0.199,0.658c-0.229,0.127-0.525,0.061-0.668-0.163 c-0.406-0.629-1.316-0.932-2.079-0.689c-0.751,0.24-1.352,0.965-1.493,1.802c-0.138,0.81,0.129,1.7,0.714,2.382 c0.08,0.094,0.199,0.223,0.317,0.267c0.107,0.04,0.284,0.032,0.437,0.024c1.901-0.086,3.847-0.043,5.728-0.003 c1.543,0.034,3.14,0.068,4.679,0.03l0,0C26.302,35.052,26.662,35.048,27.013,35.048z"/><path fill="#010101" d="M44.669,23.498c-0.009-0.136-0.019-0.266-0.028-0.4c0-0.001,0.001-0.003,0.001-0.004 c-0.001-0.02-0.003-0.036-0.005-0.056c-0.046-0.662-0.093-1.307-0.141-1.934c-0.154-2.06-0.3-4.005-0.324-6.221 c-0.019-1.677-0.231-3.51-1.663-4.388c-0.95-0.581-2.055-0.499-3.194-0.354c-5.99,0.759-11.209,0.836-15.955,0.235 c-0.987-0.125-1.976-0.334-2.522-1.015c-0.215-0.267-0.363-0.612-0.52-0.978c-0.235-0.546-0.501-1.166-1.056-1.583 c-0.572-0.429-1.276-0.514-1.948-0.564c-2.92-0.22-5.828-0.145-9.41,0.242C6.981,6.55,5.66,6.748,4.822,7.651 c-0.819,0.885-0.847,2.153-0.809,3.272c0.036,1.034,0.05,2.069,0.064,3.104c0.027,1.991,0.055,4.05,0.243,6.081l0.022,0.237 c0.08,0.849,0.162,1.726,0.172,2.582c0.014,1.219-0.121,2.468-0.252,3.676c-0.107,0.995-0.218,2.023-0.25,3.049 c-0.036,1.178,0.105,2.463,0.23,3.598c0.064,0.585,0.125,1.13,0.152,1.592c0.013,0.214,0.021,0.476,0.03,0.767 c0.033,1.06,0.08,2.511,0.381,3.507c0.445,1.478,1.823,2.355,2.9,2.831c1.84,0.812,3.794,1.056,5.776,1.056 c1.522,0,3.062-0.144,4.578-0.286c0.844-0.079,1.685-0.157,2.518-0.211c2.961-0.191,5.995-0.037,8.93,0.111 c2.953,0.148,6.009,0.302,9.018,0.111c1.606-0.103,3.6-0.4,4.771-1.815c1.171-1.413,1.084-3.347,1.008-5.054l-0.026-0.636 c-0.062-1.825,0.078-3.655,0.213-5.425C44.649,27.754,44.812,25.641,44.669,23.498z M5.557,8.331 c0.598-0.646,1.669-0.797,2.438-0.855c3.535-0.382,6.386-0.458,9.244-0.24c0.546,0.04,1.065,0.099,1.422,0.366 c0.342,0.257,0.533,0.704,0.737,1.178c0.176,0.411,0.358,0.837,0.659,1.21c0.771,0.959,2.038,1.235,3.177,1.38 c4.832,0.612,10.132,0.535,16.206-0.235c0.958-0.122,1.874-0.199,2.546,0.215c1.017,0.622,1.17,2.142,1.186,3.546 c0.014,1.289,0.07,2.482,0.144,3.658c-0.241-0.35-0.515-0.696-0.843-1.055c-0.953-1.042-1.959-1.64-2.988-1.777 c-0.503-0.064-0.993-0.021-1.475,0.023c-5.556,0.508-11.234,0.697-16.734,0.882c-1.139,0.038-2.316,0.079-3.467,0.034 c-1.092-0.041-2.209-0.158-3.29-0.272c-1.967-0.207-3.998-0.421-6.019-0.197c-0.692,0.077-1.581,0.23-2.309,0.734 c-0.401,0.279-0.74,0.66-1.007,1.115c-0.066-1.349-0.089-2.703-0.107-4.026c-0.015-1.041-0.028-2.083-0.064-3.125 C4.98,9.927,4.995,8.938,5.557,8.331z M43.496,29.722c-0.137,1.797-0.278,3.654-0.216,5.534l0.027,0.647 c0.071,1.601,0.146,3.255-0.778,4.37c-0.923,1.114-2.572,1.361-4.064,1.456c-2.956,0.189-5.979,0.035-8.905-0.112 c-2.96-0.149-6.023-0.304-9.044-0.11c-0.842,0.054-1.693,0.134-2.547,0.214c-3.363,0.314-6.844,0.64-9.856-0.688 c-0.886-0.392-2.012-1.092-2.348-2.206c-0.263-0.87-0.307-2.245-0.339-3.249c-0.01-0.302-0.019-0.573-0.031-0.794 c-0.027-0.477-0.09-1.039-0.156-1.643c-0.121-1.102-0.259-2.351-0.225-3.457c0.03-0.987,0.139-1.997,0.244-2.973 c0.134-1.237,0.271-2.516,0.258-3.795c-0.001-0.134-0.014-0.268-0.018-0.402c0.036-0.074,0.06-0.154,0.054-0.242 c-0.05-0.856-0.102-1.743,0.063-2.571c0.101-0.502,0.383-1.425,1.146-1.954c0.54-0.375,1.237-0.495,1.85-0.563 c1.906-0.214,3.889-0.004,5.803,0.197c1.098,0.116,2.231,0.235,3.357,0.278c1.185,0.044,2.381,0.005,3.546-0.035 c5.506-0.185,11.199-0.375,16.793-0.886c0.438-0.041,0.85-0.08,1.243-0.026c0.789,0.104,1.591,0.596,2.381,1.461 c1.154,1.261,1.735,2.328,1.903,4.915c0.011,0.159,0.022,0.313,0.033,0.475C43.809,25.636,43.65,27.713,43.496,29.722z"/></svg>