<svg xmlns="http://www.w3.org/2000/svg"  viewBox="0 0 48 48" width="50px" height="50px" baseProfile="basic"><path fill="#fcbf95" d="M43.797,24.385c0.031,3.785-0.323,7.714-0.251,11.498c0.024,1.263,0.066,2.554-0.317,3.758	c-0.383,1.204-1.284,2.326-2.518,2.598c-0.339,0.075-0.688,0.083-1.035,0.092c-8.461,0.202-16.626-0.011-25.088,0.192	c-1.577,0.038-3.172,0.074-4.711-0.273s-3.039-0.706-3.946-1.996c-1.075-1.53-1.253-4.039-1.116-5.903	c0.065-0.886,0.036-2.263,0.129-3.147c0.243-2.301-0.506-4.581-0.712-6.886c-0.309-3.457,0.608-6.931,0.347-10.392	c-0.144-1.905-0.566-4.08,0.689-5.52c0.767-0.88,2.147-1.353,3.31-1.459c2.748-0.221,4.666-0.459,7.423-0.452	c0.746,0.002,1.551,0.032,2.138,0.492c0.955,0.748,0.922,2.297,1.842,3.087c0.536,0.46,1.284,0.562,1.988,0.623	c5.629,0.488,12.271-0.431,17.906-0.839c0.441-0.032,0.889-0.06,1.322,0.029c1.431,0.297,2.312,1.811,2.493,3.262	s-0.149,2.911-0.201,4.372c-0.036,1.011-0.235,2.021-0.139,3.028C43.471,21.775,43.787,23.151,43.797,24.385z"/><path fill="#71c598" d="M33.5,34.5c0,0-5.819-3.136-6-3c0,0,0.191-3.693,0-4c0,0,6.135-2.712,6-3	C33.5,24.5,33.611,34.568,33.5,34.5z"/><path fill="#010101" d="M44.297,24.381c-0.007-0.799-0.133-1.64-0.256-2.453c-0.04-0.267-0.069-0.521-0.104-0.781	c-0.027-0.324-0.007-0.645,0.021-0.984c0.039-0.468,0.079-0.952-0.028-1.464c-0.005-0.022-0.015-0.04-0.019-0.062	c0.034-0.366,0.068-0.732,0.081-1.099c0.019-0.503,0.07-1.006,0.122-1.509c0.099-0.957,0.201-1.947,0.076-2.943	c-0.197-1.579-1.167-3.332-2.888-3.688c-0.514-0.106-1.038-0.07-1.46-0.04c-1.367,0.1-2.794,0.229-4.251,0.36	c-4.599,0.416-9.355,0.848-13.576,0.48c-0.628-0.054-1.278-0.138-1.706-0.505c-0.356-0.306-0.55-0.802-0.755-1.327	c-0.239-0.612-0.51-1.308-1.104-1.773c-0.7-0.548-1.592-0.597-2.445-0.599c-2.201-0.024-3.839,0.141-5.765,0.31	C9.701,6.352,9.14,6.4,8.535,6.449C7.368,6.555,5.799,7.038,4.893,8.078c-1.226,1.406-1.042,3.371-0.879,5.105	c0.024,0.263,0.049,0.523,0.068,0.78c0.125,1.654-0.031,3.361-0.182,5.013c-0.059,0.651-0.114,1.311-0.158,1.975	c-0.004,0.039-0.01,0.073-0.014,0.113c-0.001,0.012,0.004,0.023,0.004,0.034c-0.068,1.082-0.095,2.174,0.002,3.262	c0.075,0.839,0.22,1.678,0.361,2.488c0.258,1.484,0.501,2.887,0.352,4.302c-0.055,0.515-0.068,1.175-0.082,1.813	c-0.011,0.488-0.021,0.966-0.049,1.35c-0.09,1.229-0.154,4.296,1.205,6.228c1.036,1.474,2.741,1.857,4.245,2.196	c1.11,0.251,2.238,0.31,3.353,0.31c0.497,0,0.992-0.012,1.481-0.023c4.229-0.102,8.455-0.095,12.546-0.097	c4.085,0.006,8.31,0.006,12.541-0.096c0.347-0.008,0.741-0.017,1.131-0.104c1.549-0.341,2.507-1.739,2.887-2.935	c0.393-1.236,0.368-2.525,0.344-3.773l-0.003-0.146c-0.038-1.976,0.043-4.031,0.121-6.02C44.238,28.051,44.312,26.187,44.297,24.381	z M5.647,8.734C6.359,7.918,7.696,7.529,8.62,7.445C9.223,7.397,9.786,7.348,10.327,7.3c1.868-0.164,3.486-0.306,5.562-0.306	c0.038,0,0.076,0,0.113,0c0.708,0.002,1.38,0.033,1.831,0.386c0.379,0.297,0.579,0.809,0.79,1.35	c0.241,0.617,0.489,1.255,1.036,1.724c0.653,0.56,1.515,0.676,2.271,0.741c4.31,0.377,9.11-0.06,13.752-0.48	c1.451-0.132,2.871-0.26,4.232-0.358c0.379-0.028,0.807-0.057,1.186,0.021c1.23,0.256,1.951,1.647,2.099,2.834	c0.11,0.884,0.019,1.774-0.078,2.718c-0.035,0.342-0.057,0.685-0.083,1.028c-0.224-0.237-0.469-0.447-0.752-0.588	c-0.62-0.309-1.328-0.344-1.845-0.368c-5.133-0.247-10.346,0.01-15.385,0.256c-4.636,0.229-9.43,0.461-14.135,0.304l-0.173-0.006	c-1.512-0.054-3.077-0.105-4.513,0.524c-0.496,0.217-0.896,0.479-1.231,0.79c0.108-1.313,0.178-2.649,0.077-3.98	c-0.02-0.262-0.045-0.528-0.07-0.798C4.858,11.481,4.703,9.817,5.647,8.734z M43.168,29.814c-0.079,2.003-0.161,4.073-0.122,6.078	l0.003,0.146c0.022,1.166,0.046,2.372-0.297,3.451c-0.371,1.168-1.214,2.055-2.149,2.261c-0.295,0.065-0.622,0.073-0.938,0.08	c-4.22,0.101-8.44,0.1-12.517,0.096c-4.092,0.001-8.329-0.005-12.57,0.097c-1.526,0.038-3.104,0.074-4.59-0.261	c-1.393-0.314-2.833-0.639-3.646-1.797c-1.207-1.715-1.091-4.703-1.026-5.578c0.029-0.399,0.041-0.896,0.051-1.402	c0.013-0.617,0.027-1.256,0.077-1.729c0.164-1.555-0.103-3.092-0.361-4.578c-0.137-0.791-0.279-1.608-0.35-2.406	c-0.095-1.063-0.064-2.148,0.007-3.227c0.179-1.925,0.832-2.586,1.896-3.052c1.228-0.538,2.677-0.491,4.077-0.44l0.174,0.006	c4.745,0.158,9.56-0.077,14.218-0.305c5.015-0.246,10.204-0.499,15.288-0.257c0.556,0.027,1.048,0.066,1.446,0.265	c0.496,0.248,0.879,0.797,1.062,1.476c-0.055,0.606-0.105,1.226-0.044,1.858c0.02,0.212,0.058,0.439,0.088,0.658	c0.003,0.034,0,0.065,0.004,0.099c0.002,0.019,0.012,0.035,0.016,0.053c0.031,0.224,0.055,0.442,0.089,0.67	c0.118,0.779,0.239,1.585,0.245,2.313C43.312,26.171,43.239,28.023,43.168,29.814z"/><path fill="none" stroke="#010101" stroke-linecap="round" stroke-linejoin="round" stroke-miterlimit="10" d="M33.5,34.5	c0,0-5.819-3.136-6-3c0,0,0.191-3.693,0-4c0,0,6.135-2.712,6-3C33.5,24.5,33.611,34.568,33.5,34.5z"/><path fill="#71c598" d="M26.5,34.5c0,0-8.723-0.371-9,0c-1.105,0-2.494-0.399-2-2c0,0-0.289-6.329,0-6	c0-1.105,0.384-1.906,2-2c0,0,9.031,0.049,9,0c1.105,0,1.618,0.503,2,2c0,0,0.14,6.244,0,6C28.5,33.605,27.522,34.017,26.5,34.5z"/><path fill="none" stroke="#010101" stroke-linecap="round" stroke-linejoin="round" stroke-miterlimit="10" d="M26.5,34.5	c0,0-8.723-0.371-9,0c-1.105,0-2.494-0.399-2-2c0,0-0.289-6.329,0-6c0-1.105,0.384-1.906,2-2c0,0,9.031,0.049,9,0	c1.105,0,1.618,0.503,2,2c0,0,0.14,6.244,0,6C28.5,33.605,27.522,34.017,26.5,34.5z"/></svg>