<svg xmlns="http://www.w3.org/2000/svg"  viewBox="0 0 48 48" width="100px" height="100px"><path fill="#fcbf95" d="M7.634,7.305C5.95,7.479,5.279,8.69,4.853,9.889c-0.425,1.199-0.389,2.506-0.348,3.778 c0.151,4.636,0.208,9.942,0.359,14.578c-0.359,2.625-0.297,5.947-0.23,8.595c0.035,1.409,0.172,2.923,1.083,3.998 c1.269,1.497,3.508,1.583,5.47,1.55c6.166-0.103,12.332-0.206,18.497-0.31c0.968-0.016,1.936-0.032,2.903-0.049 c2.327-0.039,4.66-0.078,6.966-0.389c0.626-0.084,1.261-0.192,1.827-0.473c1.038-0.516,1.728-1.568,2.067-2.677 s0.371-2.284,0.401-3.443c0.102-3.957,0.194-8.43,0.296-12.387c-0.066-1.562-0.141-3.641-0.207-5.203 c-0.05-1.182-0.101-2.743-0.406-3.886c-0.304-1.143-0.887-2.248-1.824-2.969c-1.337-1.03-3.156-1.13-4.842-1.057 c-5.076,0.218-10.197,1.972-15.173,0.94c-0.836-0.173-1.763-0.502-2.092-1.29c-0.145-0.347-0.15-0.737-0.263-1.095 c-0.272-0.859-1.142-1.415-2.026-1.587c-0.884-0.171-1.795-0.03-2.688,0.092C12.238,6.932,10.044,7.274,7.634,7.305z"/><path fill="#010101" d="M44.558,20.444c0.016-0.049,0.031-0.098,0.032-0.152c0.001-0.125-0.027-0.275-0.055-0.425 c-0.033-0.852-0.066-1.698-0.097-2.43l-0.008-0.175c-0.05-1.193-0.111-2.679-0.414-3.818c-0.26-0.973-0.817-2.324-2.002-3.236 c-1.507-1.16-3.555-1.228-5.169-1.161c-1.835,0.079-3.69,0.358-5.485,0.628c-3.316,0.498-6.448,0.968-9.563,0.322 c-0.971-0.201-1.537-0.525-1.733-0.993c-0.061-0.145-0.092-0.32-0.125-0.508c-0.032-0.185-0.066-0.368-0.123-0.545 c-0.362-1.146-1.48-1.747-2.407-1.928c-0.916-0.177-1.824-0.053-2.704,0.067l-0.922,0.127c-2.077,0.288-4.039,0.56-6.155,0.588 c-0.015,0-0.029,0.001-0.045,0.003C5.59,7.014,4.825,8.474,4.383,9.723c-0.464,1.307-0.418,2.717-0.377,3.961 c0.065,1.974,0.112,4.071,0.157,6.184c-0.047,0.579-0.018,1.225,0.019,1.832c0.019,0.31,0.036,0.592,0.037,0.818 c0.042,1.961,0.088,3.89,0.152,5.66c-0.354,2.577-0.31,5.699-0.235,8.676c0.039,1.548,0.211,3.141,1.201,4.309 c1.284,1.516,3.359,1.732,5.309,1.732c0.185,0,0.369-0.002,0.552-0.005l21.404-0.358c2.304-0.039,4.687-0.079,7.021-0.394 c0.62-0.083,1.336-0.198,1.983-0.52c1.072-0.533,1.897-1.591,2.323-2.979c0.361-1.184,0.392-2.4,0.422-3.577 c0.051-1.979,0.1-4.087,0.147-6.195c0.049-2.106,0.098-4.214,0.148-6.226L44.558,20.444z M5.324,10.057 c0.384-1.078,0.932-2.097,2.34-2.251C9.833,7.774,11.818,7.5,13.92,7.209l0.92-0.127c0.837-0.114,1.624-0.224,2.378-0.076 c0.614,0.119,1.414,0.518,1.645,1.248c0.043,0.135,0.067,0.276,0.092,0.417c0.039,0.222,0.084,0.473,0.188,0.72 c0.495,1.181,1.969,1.485,2.452,1.585c3.292,0.684,6.658,0.178,9.915-0.313c1.769-0.266,3.599-0.54,5.38-0.616 c1.537-0.068,3.271-0.004,4.516,0.954c0.963,0.741,1.426,1.878,1.646,2.701c0.275,1.033,0.334,2.457,0.382,3.602l0.007,0.177 c0.004,0.103,0.009,0.224,0.014,0.332c-0.055-0.061-0.094-0.126-0.153-0.186c-0.664-0.673-1.833-1.477-3.631-1.487 c-1.343-0.007-2.648-0.243-4.03-0.493c-0.773-0.141-1.547-0.28-2.325-0.378c-2.172-0.271-4.363-0.146-6.48-0.023L9.02,16.268 c-1.044,0.061-2.343,0.136-3.354,0.895c-0.197,0.148-0.378,0.331-0.55,0.532c-0.032-1.38-0.067-2.739-0.109-4.044 C4.966,12.438,4.924,11.185,5.324,10.057z M43.498,28.845c-0.049,2.106-0.098,4.214-0.148,6.192 c-0.028,1.109-0.057,2.257-0.379,3.31c-0.339,1.106-0.999,1.972-1.812,2.375c-0.511,0.254-1.105,0.35-1.671,0.426 c-2.277,0.306-4.63,0.346-6.908,0.384l-21.4,0.358c-1.866,0.037-3.957-0.047-5.081-1.374C5.27,39.537,5.166,38.1,5.135,36.828 c-0.055-2.17-0.146-5.802,0.23-8.6c-0.076-2.316-0.128-4.8-0.18-7.283c-0.008-0.369-0.016-0.737-0.023-1.106 c0.023-0.219,0.057-0.416,0.12-0.554c0.268-0.589,0.599-1.034,0.983-1.323c0.771-0.577,1.902-0.644,2.812-0.696l17.813-1.023 c2.072-0.118,4.22-0.243,6.298,0.018c0.761,0.096,1.517,0.232,2.272,0.369c1.363,0.247,2.773,0.502,4.202,0.51 c1.455,0.009,2.394,0.651,2.925,1.189c0.553,0.56,0.84,1.164,0.949,1.591c0.004,0.094,0.007,0.186,0.011,0.281l0.099,2.45 C43.595,24.628,43.546,26.736,43.498,28.845z"/><path fill="#73a1b2" d="M31.229,21.271c-1.435-0.682-2.385-0.623-3.971-0.718c-0.495-0.03-0.999-0.01-1.474,0.131 c-0.602,0.178-1.133,0.542-1.616,0.944c-1.226,1.02-2.238,2.378-2.534,3.945c-0.38,2.01,0.512,4.149,2.056,5.49 c1.544,1.342,3.658,1.928,5.701,1.84c0.912-0.039,1.835-0.211,2.632-0.655c1.93-1.076,2.696-3.475,2.845-5.68 c0.086-1.279-0.041-2.715-0.987-3.581C33.223,22.383,32.036,21.654,31.229,21.271z"/><path fill="#9fdadf" d="M30.147,23.4c-0.906-0.592-1.53-0.791-2.607-0.686c-1.077,0.105-2.098,0.692-2.731,1.57 c-0.383,0.532-0.624,1.156-0.78,1.793c-0.178,0.727-0.245,1.51,0.019,2.21c0.523,1.382,2.12,1.996,3.568,2.294 c0.876,0.181,1.807,0.301,2.646-0.007c1.392-0.512,2.134-2.072,2.276-3.548c0.069-0.719,0.022-1.475-0.318-2.113 C31.729,23.995,31.018,23.97,30.147,23.4z"/><path fill="#010101" d="M29.101,31.263c-0.548,0-1.09-0.089-1.585-0.191c-2.123-0.438-3.446-1.314-3.935-2.606 c-0.266-0.703-0.278-1.522-0.037-2.506c0.191-0.786,0.473-1.43,0.86-1.967c0.714-0.993,1.868-1.656,3.087-1.776 c1.145-0.105,1.886,0.082,2.929,0.767c0.258,0.168,0.501,0.284,0.727,0.394c0.542,0.262,1.103,0.532,1.515,1.303 c0.345,0.646,0.468,1.429,0.375,2.396c-0.146,1.51-0.904,3.346-2.601,3.97C30,31.203,29.548,31.263,29.101,31.263z M28.055,23.187 c-0.145,0-0.299,0.009-0.467,0.025c-0.937,0.092-1.823,0.602-2.372,1.364c-0.312,0.431-0.54,0.961-0.701,1.62 c-0.19,0.781-0.19,1.407,0.002,1.915c0.359,0.95,1.437,1.616,3.201,1.981c0.8,0.164,1.643,0.282,2.372,0.012 c1.263-0.464,1.84-1.974,1.95-3.126c0.074-0.765-0.012-1.362-0.261-1.828c-0.259-0.483-0.581-0.639-1.068-0.874 c-0.261-0.126-0.54-0.263-0.838-0.457c0-0.001,0-0.001,0-0.001C29.174,23.361,28.704,23.187,28.055,23.187z"/><path fill="#c56528" d="M23.122,30.922c-0.565,0.108-1.14,0.16-1.715,0.155c-0.201-0.002-0.409-0.009-0.595,0.067 c-0.138,0.057-0.253,0.155-0.366,0.252c-1.758,1.511-3.516,3.022-5.273,4.534c-0.525,0.451-1.103,1.054-0.944,1.727 c0.149,0.63,0.922,0.942,1.556,0.813c0.635-0.129,1.154-0.57,1.638-1.001c1.315-1.17,2.596-2.375,3.878-3.581 c0.474-0.445,0.957-0.903,1.252-1.483C22.835,31.85,23.122,30.922,23.122,30.922z"/><path fill="#010101" d="M34.22,22.618c-0.712-0.653-1.935-1.399-2.775-1.799c0,0,0,0,0-0.001 c-1.314-0.623-2.277-0.671-3.497-0.729l-0.658-0.035c-0.638-0.04-1.174,0.01-1.646,0.15c-0.757,0.224-1.387,0.7-1.795,1.04 c-1.03,0.858-2.337,2.291-2.705,4.235c-0.323,1.711,0.204,3.571,1.347,5.024c-0.368,0.043-0.741,0.071-1.11,0.074 c-0.22-0.006-0.487-0.006-0.759,0.104c-0.211,0.087-0.37,0.224-0.502,0.336l-5.273,4.534c-0.37,0.318-1.354,1.164-1.104,2.22 c0.187,0.793,0.992,1.226,1.759,1.226c0.13,0,0.259-0.012,0.384-0.037c0.795-0.162,1.417-0.714,1.87-1.118 c1.321-1.175,2.626-2.402,3.889-3.59c0.476-0.447,1.015-0.954,1.354-1.62c0.109-0.213,0.195-0.44,0.279-0.667 c0.059-0.158,0.117-0.309,0.182-0.45c1.447,1.214,3.435,1.896,5.535,1.896c0.14,0,0.279-0.003,0.42-0.009 c1.142-0.05,2.075-0.284,2.854-0.719c2.432-1.354,2.986-4.392,3.102-6.083C35.493,24.742,35.117,23.439,34.22,22.618z M22.34,31.615c-0.071,0.191-0.142,0.383-0.233,0.563c-0.26,0.51-0.712,0.935-1.148,1.345c-1.257,1.183-2.557,2.405-3.867,3.571 c-0.479,0.426-0.914,0.785-1.405,0.885c-0.383,0.079-0.891-0.097-0.971-0.438c-0.098-0.416,0.4-0.902,0.783-1.232l5.273-4.534 c0.086-0.073,0.167-0.143,0.229-0.168c0.063-0.026,0.161-0.031,0.286-0.031c0.036,0,0.075,0.001,0.116,0.001 c0.31,0.003,0.645-0.011,0.966-0.043C22.359,31.562,22.35,31.589,22.34,31.615z M31.78,31.811c-0.64,0.356-1.428,0.55-2.41,0.592 c-2.049,0.095-3.995-0.538-5.352-1.717c-0.103-0.09-0.194-0.19-0.29-0.286c-0.009-0.01-0.013-0.023-0.023-0.032 c-0.007-0.007-0.017-0.009-0.025-0.015c-1.251-1.281-1.862-3.07-1.556-4.688c0.313-1.652,1.458-2.898,2.363-3.652 c0.547-0.456,0.99-0.718,1.438-0.85c0.276-0.082,0.593-0.122,0.958-0.122c0.11,0,0.226,0.004,0.345,0.011l0.67,0.035 c1.194,0.059,1.983,0.097,3.116,0.636c0.765,0.363,1.92,1.073,2.529,1.633c0.659,0.603,0.93,1.643,0.826,3.178 C34.27,28.021,33.799,30.687,31.78,31.811z"/></svg>