<svg xmlns="http://www.w3.org/2000/svg"  viewBox="0 0 48 48" width="500px" height="500px" baseProfile="basic"><path fill="#fcbf95" d="M18.194,41.448c5.251-0.3,10.519-0.004,15.777,0.083c2.149,0.036,4.317,0.08,6.428-0.326	c0.672-0.129,1.363-0.318,1.877-0.77c0.831-0.732,0.991-1.949,1.07-3.054c0.255-3.593,0.221-7.2,0.186-10.802	c-0.025-2.622-0.05-5.244-0.075-7.866c-0.017-1.79,0.065-3.302-0.152-5.079c-0.14-1.144-0.413-2.369-1.285-3.122	c-0.865-0.747-2.098-0.844-3.24-0.905c-1.316-0.07-3.076,0.08-4.386,0.225c-3.523,0.392-7.418-0.084-10.952,0.202	c-0.784,0.064-1.92-0.081-2.451-0.765c-0.531-0.684-0.783-1.555-1.33-2.227c-0.415-0.51-0.993-0.885-1.628-1.057	c-0.45-0.121-0.921-0.142-1.386-0.161c-2.795-0.113-5.59-0.197-8.387-0.253C7.316,5.555,6.307,5.558,5.521,6.079	C4.568,6.712,4.204,7.946,4.158,9.09s0.313,2.456,0.295,3.6c-0.13,8.107,0.113,15.924,0.461,24.025	c0.056,1.302,0.214,2.76,1.222,3.585c0.458,0.375,1.038,0.566,1.612,0.713C10.965,41.839,14.877,41.637,18.194,41.448z"/><path fill="#010101" d="M43.979,21.049c-0.024-2.488,0.129-5.032-0.186-7.505c-0.248-1.945-1-3.696-3.065-4.201	c-1.979-0.484-4.156-0.243-6.154-0.03c-2.421,0.258-4.846,0.164-7.275,0.132c-1.213-0.016-2.426-0.011-3.636,0.073	c-1.052,0.073-1.997-0.014-2.571-1c-0.521-0.893-0.879-1.824-1.749-2.45c-0.952-0.685-2.062-0.718-3.191-0.762	c-2.63-0.103-5.262-0.189-7.894-0.233c-1.015-0.017-2.108,0-2.99,0.574c-0.77,0.501-1.231,1.346-1.446,2.221	c-0.255,1.041-0.152,2.081-0.014,3.13c0.156,1.189,0.131,2.352,0.12,3.549c-0.024,2.614-0.011,5.229,0.03,7.843	c0.042,2.602,0.112,5.204,0.2,7.805c0.085,2.489,0.043,5.039,0.327,7.514c0.103,0.897,0.315,1.805,0.889,2.524	c0.61,0.764,1.519,1.091,2.44,1.313c2.252,0.544,4.605,0.61,6.911,0.557c1.157-0.027,2.312-0.089,3.468-0.155	c5.257-0.291,10.519-0.007,15.777,0.083c2.397,0.041,5.049,0.205,7.364-0.541c2.209-0.712,2.437-2.829,2.559-4.845	C44.208,31.458,44.029,26.242,43.979,21.049z M43.042,32.475c-0.018,1.228-0.054,2.455-0.119,3.681	c-0.053,0.994-0.039,2.077-0.397,3.021c-0.433,1.141-1.513,1.424-2.611,1.609c-1.172,0.198-2.365,0.253-3.551,0.265	c-4.867,0.049-9.73-0.291-14.598-0.225c-1.191,0.016-2.382,0.055-3.571,0.121c-2.16,0.123-4.328,0.236-6.491,0.121	c-1.114-0.059-2.225-0.178-3.315-0.418c-0.964-0.212-1.971-0.47-2.472-1.404c-0.45-0.84-0.474-1.851-0.514-2.78	c-0.054-1.233-0.103-2.466-0.15-3.7c-0.092-2.403-0.171-4.806-0.229-7.21c-0.058-2.4-0.095-4.8-0.104-7.2	c-0.004-1.188-0.002-2.376,0.008-3.564c0.01-1.16,0.07-2.317-0.075-3.471C4.629,9.557,4.262,6.728,6.568,6.178	C7.653,5.92,8.883,6.085,9.986,6.111c1.192,0.029,2.385,0.063,3.577,0.102c1.217,0.04,2.453,0.03,3.666,0.146	c1.201,0.114,1.976,0.735,2.533,1.779c0.421,0.789,0.775,1.644,1.623,2.058c0.75,0.366,1.577,0.371,2.39,0.316	c2.253-0.153,4.513-0.026,6.768-0.016c2.17,0.01,4.298-0.277,6.46-0.379c1.751-0.082,4.355-0.271,5.288,1.565	c0.445,0.877,0.537,1.934,0.606,2.899c0.082,1.137,0.059,2.276,0.058,3.415C42.95,22.822,43.111,27.649,43.042,32.475z"/><path fill="#010101" d="M43.988,19.983c-0.018-1.059-0.032-2.227-0.842-3.02c-0.92-0.9-2.299-1.139-3.533-1.209	c-3.378-0.19-6.738,0.511-10.117,0.348c-1.634-0.079-3.202-0.619-4.832-0.653c-1.651-0.035-3.318,0.09-4.968,0.144	c-3.55,0.117-7.11,0.164-10.656,0.353c-1.531,0.082-2.759,0.631-3.735,1.831c-0.844,1.038-1.431,2.37-1.353,3.728	c0.037,0.64,1.037,0.644,1,0c-0.066-1.154,0.436-2.289,1.175-3.159c0.91-1.071,1.968-1.367,3.339-1.416	c3.16-0.114,6.321-0.208,9.482-0.312c1.533-0.05,3.067-0.103,4.6-0.151c0.694-0.022,1.395-0.049,2.083,0.059	c0.735,0.116,1.453,0.317,2.192,0.42c2.992,0.418,5.994-0.017,8.988-0.169c1.5-0.076,3.195-0.219,4.633,0.307	c0.555,0.203,1.123,0.543,1.348,1.117c0.216,0.552,0.187,1.201,0.197,1.782C42.999,20.625,43.999,20.627,43.988,19.983	L43.988,19.983z"/><path fill="#1e88e5" d="M11.542,31.774c0.037-0.897,0.744-1.653,1.64-1.692c0.005,0,0.011,0,0.016-0.001	c5.911-0.232,15.824-0.409,21.737-0.531c0.216-0.004,0.439-0.008,0.639,0.075c0.548,0.226,0.659,0.94,0.687,1.532	c0.186,3.881,0.312,8.766,0.379,12.651c0.002,0.143,0.001,0.298-0.085,0.412c-0.089,0.117-0.243,0.16-0.387,0.191	c-1.325,0.295-3.705,0.335-5.045,0.116c-0.129-0.021-0.263-0.046-0.371-0.12c-0.246-0.169-0.274-0.515-0.278-0.814	c-0.029-2.264-0.058-4.529-0.087-6.793c-0.003-0.229-0.013-0.478-0.158-0.655c-0.176-0.215-0.486-0.251-0.763-0.265	c-1.342-0.069-3.458-0.115-4.784,0.102c-1.829,0.3-4.464-0.391-6.305-0.178c-0.264,0.031-0.554,0.097-0.702,0.317	c-0.111,0.165-0.114,0.377-0.113,0.575c0.01,2.014,0.019,4.027,0.029,6.041c0.01,2.119-0.051,1.963-4.694,1.765	c-0.344-0.015-0.722-0.048-0.962-0.295c-0.221-0.228-0.257-0.573-0.28-0.891C11.409,39.839,11.396,35.274,11.542,31.774z"/><path fill="#010101" d="M37.018,38.262c-0.052-1.895-0.113-3.789-0.192-5.683c-0.054-1.297,0.133-3.447-1.673-3.529	c-1.455-0.066-2.944,0.056-4.4,0.085c-3.384,0.068-6.769,0.137-10.153,0.222c-1.607,0.04-3.214,0.083-4.82,0.134	c-0.709,0.023-1.418,0.047-2.127,0.073c-0.631,0.024-1.211,0.077-1.727,0.48c-0.552,0.43-0.823,1.045-0.884,1.729	c-0.148,3.65-0.149,7.319,0.076,10.966c0.044,0.704,0.018,1.584,0.696,2.008c0.637,0.397,1.589,0.279,2.307,0.31	c0.943,0.042,2.081,0.216,3.001-0.086c0.642-0.211,0.892-0.74,0.95-1.376c0.141-1.554,0.009-3.164,0.001-4.723	c-0.003-0.523-0.005-1.047-0.008-1.571c-0.001-0.254-0.049-0.544,0.062-0.779c0.122-0.26,0.311-0.23,0.593-0.247	c0.836-0.052,1.678,0.041,2.509,0.121c0.854,0.083,1.712,0.18,2.571,0.161c0.765-0.017,1.519-0.171,2.284-0.207	c0.843-0.04,1.689-0.032,2.532-0.005c0.318,0.01,0.945-0.065,1.159,0.169c0.265,0.289,0.121,1.11,0.126,1.501	c0.013,1.051,0.027,2.103,0.041,3.154c0.012,0.927-0.105,1.953,0.068,2.865c0.143,0.757,0.712,0.953,1.404,1.037	c0.773,0.094,1.555,0.111,2.333,0.091c0.757-0.02,1.519-0.075,2.265-0.209c0.685-0.123,1.107-0.409,1.127-1.143	C37.193,41.968,37.068,40.102,37.018,38.262z M35.594,44.013c-0.734,0.116-1.487,0.148-2.229,0.153	c-0.638,0.004-1.406,0.06-2.028-0.109c-0.491-0.133-0.362-0.515-0.368-0.949c-0.007-0.566-0.015-1.132-0.022-1.698	c-0.011-0.89-0.023-1.779-0.034-2.669c-0.006-0.485-0.013-0.97-0.019-1.456c-0.005-0.368,0.031-0.775-0.096-1.129	c-0.234-0.651-0.881-0.753-1.489-0.785c-0.745-0.039-1.494-0.055-2.24-0.048c-1.484,0.012-2.941,0.298-4.425,0.198	c-1.447-0.098-2.951-0.42-4.4-0.2c-0.673,0.103-1.119,0.469-1.178,1.174c-0.078,0.94,0.004,1.917,0.009,2.859	c0.004,0.886,0.009,1.772,0.013,2.658c0.003,0.515,0.054,1.068-0.016,1.582c-0.012,0.092-0.027,0.188-0.063,0.286	c-0.01,0.027-0.031,0.059-0.069,0.084c-0.202,0.13-0.558,0.133-0.828,0.142c-0.603,0.019-1.208-0.015-1.81-0.041	c-0.467-0.02-0.938-0.026-1.404-0.062c-0.223-0.017-0.478-0.001-0.642-0.197c-0.156-0.188-0.111-0.638-0.126-0.872	c-0.241-3.71-0.239-7.446-0.088-11.16c0.137-1.548,2.128-1.23,3.227-1.266c1.454-0.048,2.909-0.089,4.364-0.126	c3.084-0.08,6.168-0.146,9.252-0.209c1.439-0.029,2.878-0.058,4.316-0.087c0.576-0.012,1.161-0.056,1.736-0.035	c0.554,0.02,0.713,0.22,0.795,0.741c0.06,0.381,0.051,0.785,0.068,1.169c0.154,3.474,0.247,6.95,0.316,10.427	c0.007,0.341,0.013,0.682,0.019,1.023C36.143,43.901,36.06,43.94,35.594,44.013z"/></svg>